# xmcd
#
# Track frame offsets:
#	150
#	19974
#	35553
#	48656
#	68774
#	84524
#	104050
#	121058
#	135587
#	151094
#	175873
#	189684
#	208879
#	223047
#	235760
#	247463
#	256208
#	271182
#	292656
#	313697
#	329309
#	343990
#
# Disc length: 4720 seconds
#
# Revision: 1
# Processed by: cddbd v1.5.2PL0 Copyright (c) Steve Scherf et al.
# Submitted via: audiograbber 1.83.01
#
DISCID=4f126e16
DTITLE=Various Artist - The Balladeers
DYEAR=2018
DGENRE=Country
TTITLE0=Dale Duncan - Station Minderoo
TTITLE1=Earnie Constance - Catch Cod and Colosseum
TTITLE2=Dean Perrett - He Talks Of Going Back
TTITLE3=Steve Sparrow - The Old Gidgee Tree
TTITLE4=Lex K. - Love To Go Mustering Again
TTITLE5=Gareth Brand - Asphalt
TTITLE6=Anthony Baxter - Huntah's Melody
TTITLE7=Band Of Mates - Sons Of Australia
TTITLE8=John Battle - Room Full Of Old Gold Records
TTITLE9=Adrian Cann - Orchid Street
TTITLE10=Chris Strohfield - Coster's Beer Stand
TTITLE11=Peter Coad - Tommy Mac
TTITLE12=Kylie Adams-Collier - Ferry Over The Clarence
TTITLE13=Gail and Lindsay Hammond - The Bushman's Song
TTITLE14=Malcolm Doyle - You Captured My Heart
TTITLE15=Peter Simpson - The Rusty Bell
TTITLE16=Paul Seils - Remember Ronny Martin
TTITLE17=Vicki Walsh - Dance With Me
TTITLE18=Gregory (Greg) M. Dillon - The Bible and The Soldiers Dream
TTITLE19=Olive Bice and Disree Crawford - Nobody Lives Here Anymore
TTITLE20=Dawn Brydon - The Walker Boys
TTITLE21=Peter Wells and Allan Morgan - Foolscap Tombstone
EXTD=
EXTT0=
EXTT1=
EXTT2=
EXTT3=
EXTT4=
EXTT5=
EXTT6=
EXTT7=
EXTT8=
EXTT9=
EXTT10=
EXTT11=
EXTT12=
EXTT13=
EXTT14=
EXTT15=
EXTT16=
EXTT17=
EXTT18=
EXTT19=
EXTT20=
EXTT21=
PLAYORDER=
